<mxfile host="app.diagrams.net" modified="2024-02-21T02:10:17.785Z" agent="Mozilla/5.0 (Macintosh; Intel Mac OS X 10_15_7) AppleWebKit/537.36 (KHTML, like Gecko) Chrome/121.0.0.0 Safari/537.36" etag="cyCqFjuq9mgnJuyyqtFm" version="23.1.5" type="github">
  <diagram name="第 1 页" id="4OQSbM-UqQSi4J07hlUe">
    <mxGraphModel dx="1434" dy="820" grid="1" gridSize="10" guides="1" tooltips="1" connect="1" arrows="1" fold="1" page="1" pageScale="1" pageWidth="1200" pageHeight="500" math="0" shadow="0">
      <root>
        <mxCell id="0" />
        <mxCell id="1" parent="0" />
        <mxCell id="lh9OxJZ50uBvEwE671Iv-82" value="" style="rounded=1;whiteSpace=wrap;html=1;fillColor=#f5f5f5;fontColor=#333333;strokeColor=#666666;" vertex="1" parent="1">
          <mxGeometry x="470" y="251.24" width="480" height="78.76" as="geometry" />
        </mxCell>
        <mxCell id="lh9OxJZ50uBvEwE671Iv-33" value="" style="rounded=1;whiteSpace=wrap;html=1;fillColor=#d5e8d4;strokeColor=#82b366;" vertex="1" parent="1">
          <mxGeometry x="90" y="20" width="420" height="185" as="geometry" />
        </mxCell>
        <mxCell id="lh9OxJZ50uBvEwE671Iv-34" value="年龄" style="rounded=0;whiteSpace=wrap;html=1;" vertex="1" parent="1">
          <mxGeometry x="120" y="35" width="70" height="30" as="geometry" />
        </mxCell>
        <mxCell id="lh9OxJZ50uBvEwE671Iv-36" value="抗风险" style="rounded=0;whiteSpace=wrap;html=1;" vertex="1" parent="1">
          <mxGeometry x="205" y="35" width="70" height="30" as="geometry" />
        </mxCell>
        <mxCell id="lh9OxJZ50uBvEwE671Iv-37" value="持仓信息" style="rounded=0;whiteSpace=wrap;html=1;" vertex="1" parent="1">
          <mxGeometry x="290" y="35" width="70" height="30" as="geometry" />
        </mxCell>
        <mxCell id="lh9OxJZ50uBvEwE671Iv-38" value="" style="endArrow=none;dashed=1;html=1;dashPattern=1 3;strokeWidth=4;rounded=0;" edge="1" parent="1">
          <mxGeometry width="50" height="50" relative="1" as="geometry">
            <mxPoint x="457.5" y="49.5" as="sourcePoint" />
            <mxPoint x="497.5" y="50" as="targetPoint" />
          </mxGeometry>
        </mxCell>
        <mxCell id="lh9OxJZ50uBvEwE671Iv-39" value="画像Agent-LLM" style="rounded=1;whiteSpace=wrap;html=1;" vertex="1" parent="1">
          <mxGeometry x="217.5" y="85" width="180" height="30" as="geometry" />
        </mxCell>
        <mxCell id="lh9OxJZ50uBvEwE671Iv-40" value="投资兴趣" style="rounded=0;whiteSpace=wrap;html=1;" vertex="1" parent="1">
          <mxGeometry x="120" y="135" width="70" height="30" as="geometry" />
        </mxCell>
        <mxCell id="lh9OxJZ50uBvEwE671Iv-41" value="产品倾向" style="rounded=0;whiteSpace=wrap;html=1;" vertex="1" parent="1">
          <mxGeometry x="290" y="135" width="70" height="30" as="geometry" />
        </mxCell>
        <mxCell id="lh9OxJZ50uBvEwE671Iv-42" value="收益预期" style="rounded=0;whiteSpace=wrap;html=1;" vertex="1" parent="1">
          <mxGeometry x="377.5" y="135" width="70" height="30" as="geometry" />
        </mxCell>
        <mxCell id="lh9OxJZ50uBvEwE671Iv-43" value="" style="endArrow=none;dashed=1;html=1;dashPattern=1 3;strokeWidth=4;rounded=0;" edge="1" parent="1">
          <mxGeometry width="50" height="50" relative="1" as="geometry">
            <mxPoint x="460" y="149.5" as="sourcePoint" />
            <mxPoint x="500" y="150" as="targetPoint" />
          </mxGeometry>
        </mxCell>
        <mxCell id="lh9OxJZ50uBvEwE671Iv-44" value="投资时长" style="rounded=0;whiteSpace=wrap;html=1;" vertex="1" parent="1">
          <mxGeometry x="205" y="135" width="70" height="30" as="geometry" />
        </mxCell>
        <mxCell id="lh9OxJZ50uBvEwE671Iv-45" value="浏览足迹" style="rounded=0;whiteSpace=wrap;html=1;" vertex="1" parent="1">
          <mxGeometry x="377.5" y="35" width="70" height="30" as="geometry" />
        </mxCell>
        <mxCell id="lh9OxJZ50uBvEwE671Iv-50" value="" style="rounded=1;whiteSpace=wrap;html=1;fillColor=#fff2cc;strokeColor=#d6b656;" vertex="1" parent="1">
          <mxGeometry x="560" y="20" width="460" height="185" as="geometry" />
        </mxCell>
        <mxCell id="lh9OxJZ50uBvEwE671Iv-51" value="预设因子" style="rounded=0;whiteSpace=wrap;html=1;" vertex="1" parent="1">
          <mxGeometry x="590" y="30" width="70" height="30" as="geometry" />
        </mxCell>
        <mxCell id="lh9OxJZ50uBvEwE671Iv-52" value="场" style="rounded=0;whiteSpace=wrap;html=1;" vertex="1" parent="1">
          <mxGeometry x="675" y="30" width="70" height="30" as="geometry" />
        </mxCell>
        <mxCell id="lh9OxJZ50uBvEwE671Iv-53" value="场内动作" style="rounded=0;whiteSpace=wrap;html=1;" vertex="1" parent="1">
          <mxGeometry x="760" y="30" width="70" height="30" as="geometry" />
        </mxCell>
        <mxCell id="lh9OxJZ50uBvEwE671Iv-55" value="因子泛化" style="rounded=1;whiteSpace=wrap;html=1;" vertex="1" parent="1">
          <mxGeometry x="600" y="85" width="180" height="30" as="geometry" />
        </mxCell>
        <mxCell id="lh9OxJZ50uBvEwE671Iv-56" value="收益规则" style="rounded=0;whiteSpace=wrap;html=1;" vertex="1" parent="1">
          <mxGeometry x="590" y="130" width="70" height="30" as="geometry" />
        </mxCell>
        <mxCell id="lh9OxJZ50uBvEwE671Iv-58" value="持仓分析" style="rounded=0;whiteSpace=wrap;html=1;" vertex="1" parent="1">
          <mxGeometry x="810" y="130" width="70" height="30" as="geometry" />
        </mxCell>
        <mxCell id="lh9OxJZ50uBvEwE671Iv-60" value="资金用途" style="rounded=0;whiteSpace=wrap;html=1;" vertex="1" parent="1">
          <mxGeometry x="675" y="130" width="70" height="30" as="geometry" />
        </mxCell>
        <mxCell id="lh9OxJZ50uBvEwE671Iv-61" value="历史对话" style="rounded=0;whiteSpace=wrap;html=1;" vertex="1" parent="1">
          <mxGeometry x="847.5" y="30" width="70" height="30" as="geometry" />
        </mxCell>
        <mxCell id="lh9OxJZ50uBvEwE671Iv-62" value="预设状态" style="rounded=0;whiteSpace=wrap;html=1;" vertex="1" parent="1">
          <mxGeometry x="930" y="30" width="70" height="30" as="geometry" />
        </mxCell>
        <mxCell id="lh9OxJZ50uBvEwE671Iv-63" value="状态泛化" style="rounded=1;whiteSpace=wrap;html=1;" vertex="1" parent="1">
          <mxGeometry x="810" y="85" width="180" height="30" as="geometry" />
        </mxCell>
        <mxCell id="lh9OxJZ50uBvEwE671Iv-64" value="持仓分析" style="rounded=0;whiteSpace=wrap;html=1;" vertex="1" parent="1">
          <mxGeometry x="892.5" y="130" width="70" height="30" as="geometry" />
        </mxCell>
        <mxCell id="lh9OxJZ50uBvEwE671Iv-65" value="" style="endArrow=none;dashed=1;html=1;dashPattern=1 3;strokeWidth=4;rounded=0;" edge="1" parent="1">
          <mxGeometry width="50" height="50" relative="1" as="geometry">
            <mxPoint x="750" y="149.5" as="sourcePoint" />
            <mxPoint x="790" y="150" as="targetPoint" />
          </mxGeometry>
        </mxCell>
        <mxCell id="lh9OxJZ50uBvEwE671Iv-66" value="" style="endArrow=none;dashed=1;html=1;dashPattern=1 3;strokeWidth=4;rounded=0;" edge="1" parent="1">
          <mxGeometry width="50" height="50" relative="1" as="geometry">
            <mxPoint x="970" y="149.5" as="sourcePoint" />
            <mxPoint x="1010" y="150" as="targetPoint" />
          </mxGeometry>
        </mxCell>
        <mxCell id="lh9OxJZ50uBvEwE671Iv-87" style="edgeStyle=orthogonalEdgeStyle;rounded=0;orthogonalLoop=1;jettySize=auto;html=1;exitX=1;exitY=0.5;exitDx=0;exitDy=0;entryX=0;entryY=0.5;entryDx=0;entryDy=0;" edge="1" parent="1" source="lh9OxJZ50uBvEwE671Iv-67" target="lh9OxJZ50uBvEwE671Iv-68">
          <mxGeometry relative="1" as="geometry" />
        </mxCell>
        <mxCell id="lh9OxJZ50uBvEwE671Iv-67" value="状态分类" style="rounded=1;whiteSpace=wrap;html=1;fillColor=#f5f5f5;fontColor=#333333;strokeColor=#666666;" vertex="1" parent="1">
          <mxGeometry x="150" y="263.22" width="120" height="60" as="geometry" />
        </mxCell>
        <mxCell id="lh9OxJZ50uBvEwE671Iv-68" value="" style="ellipse;whiteSpace=wrap;html=1;aspect=fixed;" vertex="1" parent="1">
          <mxGeometry x="330" y="285.38142857142856" width="15.669642857142856" height="15.669642857142856" as="geometry" />
        </mxCell>
        <mxCell id="lh9OxJZ50uBvEwE671Iv-69" value="" style="ellipse;whiteSpace=wrap;html=1;aspect=fixed;" vertex="1" parent="1">
          <mxGeometry x="368.57142857142856" y="246.81" width="15.669642857142856" height="15.669642857142856" as="geometry" />
        </mxCell>
        <mxCell id="lh9OxJZ50uBvEwE671Iv-70" value="" style="ellipse;whiteSpace=wrap;html=1;aspect=fixed;" vertex="1" parent="1">
          <mxGeometry x="368.57142857142856" y="317.5242857142857" width="15.669642857142856" height="15.669642857142856" as="geometry" />
        </mxCell>
        <mxCell id="lh9OxJZ50uBvEwE671Iv-88" style="edgeStyle=orthogonalEdgeStyle;rounded=0;orthogonalLoop=1;jettySize=auto;html=1;exitX=1;exitY=0.5;exitDx=0;exitDy=0;entryX=0;entryY=0.5;entryDx=0;entryDy=0;" edge="1" parent="1" source="lh9OxJZ50uBvEwE671Iv-71" target="lh9OxJZ50uBvEwE671Iv-82">
          <mxGeometry relative="1" as="geometry" />
        </mxCell>
        <mxCell id="lh9OxJZ50uBvEwE671Iv-71" value="" style="ellipse;whiteSpace=wrap;html=1;aspect=fixed;" vertex="1" parent="1">
          <mxGeometry x="413.57142857142856" y="282.16714285714284" width="15.669642857142856" height="15.669642857142856" as="geometry" />
        </mxCell>
        <mxCell id="lh9OxJZ50uBvEwE671Iv-72" value="" style="curved=1;endArrow=classic;html=1;rounded=0;entryX=0;entryY=0.5;entryDx=0;entryDy=0;" edge="1" parent="1" target="lh9OxJZ50uBvEwE671Iv-69">
          <mxGeometry width="50" height="50" relative="1" as="geometry">
            <mxPoint x="342.8571428571429" y="285.38142857142856" as="sourcePoint" />
            <mxPoint x="378.21428571428567" y="259.66714285714284" as="targetPoint" />
            <Array as="points">
              <mxPoint x="342.8571428571429" y="272.5242857142857" />
            </Array>
          </mxGeometry>
        </mxCell>
        <mxCell id="lh9OxJZ50uBvEwE671Iv-73" value="" style="curved=1;endArrow=classic;html=1;rounded=0;entryX=0;entryY=0.5;entryDx=0;entryDy=0;" edge="1" parent="1" target="lh9OxJZ50uBvEwE671Iv-70">
          <mxGeometry width="50" height="50" relative="1" as="geometry">
            <mxPoint x="342.8571428571429" y="304.66714285714284" as="sourcePoint" />
            <mxPoint x="375" y="327.16714285714284" as="targetPoint" />
            <Array as="points">
              <mxPoint x="349.2857142857142" y="323.1492857142857" />
            </Array>
          </mxGeometry>
        </mxCell>
        <mxCell id="lh9OxJZ50uBvEwE671Iv-74" value="" style="curved=1;endArrow=classic;html=1;rounded=0;entryX=0.5;entryY=0;entryDx=0;entryDy=0;" edge="1" parent="1" target="lh9OxJZ50uBvEwE671Iv-71">
          <mxGeometry width="50" height="50" relative="1" as="geometry">
            <mxPoint x="387.8571428571429" y="253.23857142857145" as="sourcePoint" />
            <mxPoint x="420" y="221.09571428571428" as="targetPoint" />
            <Array as="points">
              <mxPoint x="413.57142857142856" y="259.66714285714284" />
            </Array>
          </mxGeometry>
        </mxCell>
        <mxCell id="lh9OxJZ50uBvEwE671Iv-75" value="" style="curved=1;endArrow=classic;html=1;rounded=0;entryX=0.5;entryY=1;entryDx=0;entryDy=0;" edge="1" parent="1" target="lh9OxJZ50uBvEwE671Iv-71">
          <mxGeometry width="50" height="50" relative="1" as="geometry">
            <mxPoint x="387.8571428571429" y="330.38142857142856" as="sourcePoint" />
            <mxPoint x="420" y="298.23857142857145" as="targetPoint" />
            <Array as="points">
              <mxPoint x="420" y="330.38142857142856" />
            </Array>
          </mxGeometry>
        </mxCell>
        <mxCell id="lh9OxJZ50uBvEwE671Iv-76" value="状态转移" style="text;html=1;strokeColor=none;fillColor=none;align=center;verticalAlign=middle;whiteSpace=wrap;rounded=0;" vertex="1" parent="1">
          <mxGeometry x="355.71428571428567" y="276.31" width="51.42857142857142" height="30" as="geometry" />
        </mxCell>
        <mxCell id="lh9OxJZ50uBvEwE671Iv-85" style="edgeStyle=orthogonalEdgeStyle;rounded=0;orthogonalLoop=1;jettySize=auto;html=1;exitX=1;exitY=0.5;exitDx=0;exitDy=0;entryX=0;entryY=0.5;entryDx=0;entryDy=0;" edge="1" parent="1" source="lh9OxJZ50uBvEwE671Iv-77" target="lh9OxJZ50uBvEwE671Iv-80">
          <mxGeometry relative="1" as="geometry" />
        </mxCell>
        <mxCell id="lh9OxJZ50uBvEwE671Iv-77" value="基于状态的策划" style="rounded=1;whiteSpace=wrap;html=1;" vertex="1" parent="1">
          <mxGeometry x="510" y="263.22" width="110" height="36.78" as="geometry" />
        </mxCell>
        <mxCell id="lh9OxJZ50uBvEwE671Iv-86" style="edgeStyle=orthogonalEdgeStyle;rounded=0;orthogonalLoop=1;jettySize=auto;html=1;exitX=1;exitY=0.5;exitDx=0;exitDy=0;entryX=0;entryY=0.5;entryDx=0;entryDy=0;" edge="1" parent="1" source="lh9OxJZ50uBvEwE671Iv-80" target="lh9OxJZ50uBvEwE671Iv-81">
          <mxGeometry relative="1" as="geometry" />
        </mxCell>
        <mxCell id="lh9OxJZ50uBvEwE671Iv-80" value="因子编排" style="rounded=1;whiteSpace=wrap;html=1;" vertex="1" parent="1">
          <mxGeometry x="660" y="262.48" width="110" height="37.52" as="geometry" />
        </mxCell>
        <mxCell id="lh9OxJZ50uBvEwE671Iv-81" value="承接语和query生成" style="rounded=1;whiteSpace=wrap;html=1;" vertex="1" parent="1">
          <mxGeometry x="810" y="263.22" width="110" height="36.78" as="geometry" />
        </mxCell>
        <mxCell id="lh9OxJZ50uBvEwE671Iv-83" value="&lt;font style=&quot;font-size: 16px;&quot;&gt;LLM&lt;/font&gt;" style="text;html=1;align=center;verticalAlign=middle;whiteSpace=wrap;rounded=0;" vertex="1" parent="1">
          <mxGeometry x="680" y="303.19" width="60" height="30" as="geometry" />
        </mxCell>
        <mxCell id="lh9OxJZ50uBvEwE671Iv-89" value="支小宝lite：在余额宝、稳健、搜索页等场内激发用户需求，引导用户到支小宝端内进行交互" style="rounded=1;whiteSpace=wrap;html=1;fillColor=#dae8fc;strokeColor=#6c8ebf;" vertex="1" parent="1">
          <mxGeometry x="100" y="380" width="382.5" height="60" as="geometry" />
        </mxCell>
        <mxCell id="lh9OxJZ50uBvEwE671Iv-90" value="支小宝端内：对用户进行KYC问询以及换品推荐，提升对话轮次" style="rounded=1;whiteSpace=wrap;html=1;fillColor=#dae8fc;strokeColor=#6c8ebf;" vertex="1" parent="1">
          <mxGeometry x="610" y="380" width="380" height="60" as="geometry" />
        </mxCell>
        <mxCell id="lh9OxJZ50uBvEwE671Iv-93" value="用户基础信息：通过画像Agent抽象成投资直接相关维度" style="text;html=1;align=center;verticalAlign=middle;whiteSpace=wrap;rounded=0;" vertex="1" parent="1">
          <mxGeometry x="140" y="175" width="320" height="30" as="geometry" />
        </mxCell>
        <mxCell id="lh9OxJZ50uBvEwE671Iv-94" value="产品相关信息：通过因子泛化和状态泛化得到描述用户需求的维度以及描述对话主题的维度" style="text;html=1;align=center;verticalAlign=middle;whiteSpace=wrap;rounded=0;" vertex="1" parent="1">
          <mxGeometry x="635" y="172.5" width="320" height="30" as="geometry" />
        </mxCell>
        <mxCell id="lh9OxJZ50uBvEwE671Iv-95" value="" style="endArrow=none;dashed=1;html=1;rounded=0;" edge="1" parent="1">
          <mxGeometry width="50" height="50" relative="1" as="geometry">
            <mxPoint x="60" y="230" as="sourcePoint" />
            <mxPoint x="1180" y="230" as="targetPoint" />
          </mxGeometry>
        </mxCell>
        <mxCell id="lh9OxJZ50uBvEwE671Iv-96" value="" style="endArrow=none;dashed=1;html=1;rounded=0;" edge="1" parent="1">
          <mxGeometry width="50" height="50" relative="1" as="geometry">
            <mxPoint x="65" y="360" as="sourcePoint" />
            <mxPoint x="1185" y="360" as="targetPoint" />
          </mxGeometry>
        </mxCell>
        <mxCell id="lh9OxJZ50uBvEwE671Iv-97" value="&lt;font style=&quot;font-size: 16px;&quot;&gt;数据表达&lt;/font&gt;" style="text;html=1;align=center;verticalAlign=middle;whiteSpace=wrap;rounded=0;" vertex="1" parent="1">
          <mxGeometry x="1040" y="85" width="90" height="30" as="geometry" />
        </mxCell>
        <mxCell id="lh9OxJZ50uBvEwE671Iv-98" value="&lt;font style=&quot;font-size: 16px;&quot;&gt;算法模型&lt;/font&gt;" style="text;html=1;align=center;verticalAlign=middle;whiteSpace=wrap;rounded=0;" vertex="1" parent="1">
          <mxGeometry x="1040" y="273.18999999999994" width="90" height="30" as="geometry" />
        </mxCell>
        <mxCell id="lh9OxJZ50uBvEwE671Iv-99" value="&lt;font style=&quot;font-size: 16px;&quot;&gt;业务支撑&lt;/font&gt;" style="text;html=1;align=center;verticalAlign=middle;whiteSpace=wrap;rounded=0;" vertex="1" parent="1">
          <mxGeometry x="1040" y="394.99999999999994" width="90" height="30" as="geometry" />
        </mxCell>
      </root>
    </mxGraphModel>
  </diagram>
</mxfile>
